# xmcd
#
# Track frame offsets: 
#        150
#        20027
#        44269
#        63962
#        80065
#        96795
#        120070
#        135025
#        156525
#        174740
#
# Disc length: 2655 seconds
#
# Revision: 0
# Processed by: cddbd v1.5.2PL0 Copyright (c) Steve Scherf et al.
# Submitted via: ExactAudioCopy v0.99pb4
#
DISCID=790a5d0a
DTITLE=Various Artist - Voices from Paradise
DYEAR=1900
DGENRE=New Age
TTITLE0=Travel Together
TTITLE1=The Prayer Before Daybreak
TTITLE2=Song of Angels
TTITLE3=Love Songs Feast
TTITLE4=Ode to Ireland
TTITLE5=Dreamand
TTITLE6=The date of Life
TTITLE7=Human World
TTITLE8=Starlight Afar
TTITLE9=Rose
EXTD=
EXTT0=
EXTT1=
EXTT2=
EXTT3=
EXTT4=
EXTT5=
EXTT6=
EXTT7=
EXTT8=
EXTT9=
PLAYORDER=
